<?xml version="1.0" encoding="UTF-8"?>
<svg id="Layer_2" data-name="Layer 2" xmlns="http://www.w3.org/2000/svg" viewBox="0 0 409.71 55">
  <defs>
    <style>
      .cls-1 {
        fill: #fff;
        stroke-width: 0px;
      }
    </style>
  </defs>
  
    <g>
      <path class="cls-1" d="m69.71,3.59h12.96c.46,0,.87-.16,1.25-.48.39-.33.58-.77.58-1.32s-.19-.99-.58-1.32c-.37-.32-.79-.48-1.25-.48h-12.96c-.45,0-.87.16-1.25.48-.38.33-.58.77-.58,1.32s.19.99.58,1.32c.37.32.79.48,1.25.48"/>
      <path class="cls-1" d="m77.8,8.41c-.43-.91-1.11-1.11-1.61-1.11s-1.17.19-1.61,1.12l-18.52,42.34c-.09.28-.14.52-.14.72,0,.45.16.86.49,1.22.33.38.78.57,1.34.57.45,0,.82-.12,1.11-.35.27-.22.46-.46.56-.71l16.77-38.68,7.46,17.34h-10.61c-.56,0-1.01.19-1.34.57-.32.37-.49.78-.49,1.22s.16.86.49,1.22c.33.38.78.57,1.34.57h12.2l7.72,17.75c.1.25.29.49.56.71.29.23.66.35,1.11.35.55,0,1-.19,1.34-.57.32-.37.49-.78.49-1.22,0-.2-.05-.43-.15-.74l-18.51-42.33Z"/>
      <path class="cls-1" d="m170.42,8.41c-.43-.91-1.11-1.11-1.61-1.11s-1.17.19-1.61,1.12l-18.52,42.34c-.09.28-.14.52-.14.72,0,.45.16.86.49,1.22.33.38.78.57,1.34.57.45,0,.82-.12,1.11-.35.27-.22.46-.46.56-.71l16.77-38.68,7.46,17.34h-10.61c-.55,0-1.01.19-1.34.57-.32.37-.49.78-.49,1.22s.16.86.49,1.22c.33.38.78.57,1.34.57h12.2l7.72,17.75c.1.25.29.49.57.71.29.23.66.35,1.11.35.55,0,1-.19,1.34-.57.32-.37.49-.78.49-1.22,0-.2-.05-.43-.15-.74l-18.51-42.33Z"/>
      <path class="cls-1" d="m267.75,8.41c-.43-.91-1.11-1.11-1.61-1.11s-1.17.19-1.61,1.12l-18.52,42.34c-.09.28-.14.52-.14.72,0,.45.16.86.49,1.22.33.38.78.57,1.34.57.45,0,.82-.12,1.11-.35.27-.22.46-.46.56-.71l16.77-38.68,7.46,17.34h-10.61c-.55,0-1.01.19-1.34.57-.32.37-.49.78-.49,1.22s.16.86.49,1.22c.33.38.78.57,1.34.57h12.2l7.72,17.75c.1.25.29.49.57.71.29.23.66.35,1.11.35.55,0,1-.19,1.34-.57.32-.37.49-.78.49-1.22,0-.2-.05-.43-.15-.74l-18.51-42.33Z"/>
      <path class="cls-1" d="m247.79,9.12c0-.44-.16-.86-.49-1.22-.33-.38-.79-.57-1.34-.57-.79,0-1.39.41-1.74,1.18l-16.64,38.43-8.22-19.01,7.89-18.03c.1-.28.14-.54.14-.78,0-.44-.16-.86-.49-1.22-.33-.38-.78-.57-1.34-.57-.79,0-1.39.41-1.74,1.18l-16.65,38.43-16.65-38.44c-.34-.77-.94-1.17-1.74-1.17-.55,0-1.01.19-1.34.57-.32.36-.49.78-.49,1.22,0,.25.07.53.21.86l18.25,42.06c.3.78.9,1.19,1.74,1.19s1.44-.41,1.74-1.18l8.46-19.62,8.46,19.61c.3.78.9,1.19,1.74,1.19s1.44-.41,1.74-1.18l18.26-42.07c.14-.33.21-.61.21-.86"/>
      <path class="cls-1" d="m212.27,20.88c.34.77.94,1.18,1.74,1.18.55,0,1.01-.19,1.34-.57.32-.37.49-.78.49-1.22,0-.24-.05-.5-.14-.78l-4.75-10.98c-.34-.77-.94-1.18-1.74-1.18-.55,0-1.01.19-1.34.57-.32.36-.49.78-.49,1.22,0,.24.05.5.15.8l4.74,10.96Z"/>
      <path class="cls-1" d="m363.06,8.41c-.43-.91-1.11-1.11-1.61-1.11s-1.17.19-1.61,1.12l-18.52,42.34c-.09.28-.14.52-.14.72,0,.45.16.86.49,1.22.33.38.78.57,1.34.57.45,0,.82-.12,1.11-.35.27-.22.46-.46.56-.71l16.77-38.68,7.46,17.34h-10.61c-.55,0-1.01.19-1.34.57-.32.37-.49.78-.49,1.22s.16.86.49,1.22c.33.38.78.57,1.34.57h12.2l7.72,17.75c.1.25.29.49.57.71.29.23.66.35,1.11.35.55,0,1-.19,1.34-.57.32-.37.49-.78.49-1.22,0-.2-.05-.43-.15-.74l-18.51-42.33Z"/>
      <path class="cls-1" d="m139.29,53.28c-.55,0-1.09-.25-1.44-.69l-30.13-38.26v37.15c0,.99-.81,1.79-1.82,1.79s-1.82-.8-1.82-1.79V9.09c0-.76.5-1.45,1.23-1.69.74-.25,1.55,0,2.03.6l30.13,38.26V9.09c0-.99.82-1.79,1.82-1.79s1.82.8,1.82,1.79v42.4c0,.77-.5,1.44-1.23,1.69-.19.07-.39.1-.59.1"/>
      <path class="cls-1" d="m394.73,53.27c-1.01,0-1.82-.8-1.82-1.79v-22.26l13.43-21.08c.53-.84,1.66-1.09,2.51-.57.85.53,1.11,1.63.58,2.47l-12.88,20.21v21.23c0,.99-.82,1.79-1.82,1.79"/>
      <path class="cls-1" d="m391.01,25.69c-.61,0-1.2-.3-1.54-.84l-9.44-14.81c-.53-.84-.28-1.94.58-2.47.85-.53,1.98-.27,2.51.57l9.44,14.81c.53.84.28,1.94-.58,2.47-.3.18-.64.27-.96.27"/>
      <path class="cls-1" d="m323.89,49.69h-10.49V10.89h8.04c4.92,0,8.93,3.95,8.93,8.8s-4.01,8.8-8.93,8.8h-2.72c-1.01,0-1.82.8-1.82,1.79s.82,1.79,1.82,1.79h5.17c4.92,0,8.93,3.95,8.93,8.8s-4.01,8.8-8.93,8.8m5.11-20.12c3.04-2.26,5.02-5.84,5.02-9.88,0-6.83-5.64-12.39-12.57-12.39h-9.8s-.02,0-.03,0c-.01,0-.02,0-.03,0-1.01,0-1.82.8-1.82,1.79v42.39c0,.99.82,1.79,1.82,1.79h0s12.31.01,12.31.01c6.93,0,12.57-5.56,12.57-12.39,0-5.04-3.07-9.38-7.47-11.31"/>
      <path class="cls-1" d="m47.33,7.83c-.32-.36-.74-.54-1.27-.54-.29,0-.58.07-.86.21-.3.15-.52.37-.67.65l-20.64,39.64L3.26,8.16c-.15-.29-.37-.51-.67-.66-.28-.14-.57-.21-.86-.21-.53,0-.96.18-1.27.54-.31.35-.47.74-.47,1.17v42.56c0,.43.16.82.47,1.17.32.36.74.54,1.27.54s.96-.18,1.27-.54c.31-.35.47-.74.47-1.17V16.24l18.9,36.18c.33.57.85.85,1.52.85s1.18-.29,1.52-.86l18.9-36.17v35.33c0,.43.16.82.47,1.17.32.36.74.54,1.27.54s.96-.18,1.27-.54c.31-.35.47-.74.47-1.17V9c0-.43-.16-.82-.47-1.17"/>
    </g>
 
</svg>